<?xml version="1.0" standalone="no"?>
<!DOCTYPE svg PUBLIC "-//W3C//DTD SVG 20010904//EN"
 "http://www.w3.org/TR/2001/REC-SVG-20010904/DTD/svg10.dtd">
<svg version="1.0" xmlns="http://www.w3.org/2000/svg"
 width="1592.000000pt" height="698.000000pt" viewBox="0 0 1592.000000 698.000000"
 preserveAspectRatio="xMidYMid meet">
<metadata>
Created by potrace 1.16, written by Peter Selinger 2001-2019
</metadata>
<g transform="translate(0.000000,698.000000) scale(0.100000,-0.100000)"
fill="#000000" stroke="none">
<path d="M3940 6750 c-215 -15 -501 -65 -695 -121 -513 -150 -988 -420 -1364
-774 -111 -105 -301 -314 -301 -331 0 -8 9 -19 20 -26 11 -7 20 -16 20 -20 0
-4 -36 -56 -79 -115 -261 -356 -444 -745 -546 -1168 -241 -988 -8 -2033 631
-2830 100 -125 341 -370 427 -435 l58 -44 24 30 23 29 79 -61 c414 -317 919
-531 1438 -609 191 -29 348 -38 569 -32 122 3 229 8 239 12 11 5 17 16 15 28
-3 20 5 23 117 39 327 47 598 129 900 272 215 102 431 238 615 385 117 94 328
298 409 395 58 70 60 74 42 90 -17 16 -23 11 -121 -99 -461 -523 -1101 -870
-1810 -985 -157 -25 -170 -25 -170 -1 0 19 -9 19 -247 16 -137 -2 -288 0 -338
5 -481 47 -895 182 -1301 423 -110 66 -344 233 -344 247 0 4 9 15 20 25 11 10
20 22 20 26 0 4 -24 26 -52 49 -101 79 -268 251 -410 423 -161 193 -372 580
-465 852 -117 339 -165 635 -162 1000 3 477 101 889 311 1310 80 160 192 338
323 509 15 20 17 19 76 -11 3 -2 47 43 98 99 529 588 1262 928 2056 955 676
22 1311 -181 1854 -594 24 -18 49 -33 56 -33 15 0 278 327 273 340 -1 5 -66
54 -143 109 -568 406 -1175 609 -1870 625 -99 3 -232 1 -295 -4z"/>
<path d="M3925 5943 c-87 -8 -293 -45 -389 -69 -314 -79 -624 -227 -884 -422
-134 -100 -294 -246 -379 -345 l-76 -88 26 -27 25 -27 -59 -80 c-346 -467
-512 -1033 -477 -1628 26 -451 194 -915 467 -1287 30 -41 68 -91 85 -110 17
-20 56 -64 86 -99 66 -76 248 -241 266 -241 8 0 18 9 24 20 14 26 32 25 67 -4
70 -58 257 -175 386 -240 223 -114 475 -194 717 -231 131 -19 406 -30 523 -21
83 7 87 9 87 32 0 26 -8 24 150 49 350 57 705 211 1009 437 87 65 401 367 401
385 0 5 -10 14 -22 22 -20 12 -25 10 -67 -40 -213 -255 -547 -495 -858 -620
-175 -70 -445 -141 -573 -151 -39 -3 -45 0 -48 17 -3 19 -9 20 -204 17 -210
-4 -329 5 -487 38 -287 60 -555 173 -791 332 -166 112 -168 114 -152 135 27
40 25 45 -39 101 -282 249 -495 570 -613 925 -205 615 -134 1270 199 1817 65
107 153 230 165 230 4 0 18 -8 31 -19 l23 -19 108 113 c422 441 991 675 1583
652 440 -18 804 -143 1163 -400 46 -32 84 -58 86 -56 94 116 264 327 269 336
4 7 -26 35 -80 75 -363 266 -770 429 -1203 483 -114 14 -431 19 -545 8z"/>
<path d="M3923 5135 c-362 -55 -672 -202 -934 -444 -48 -45 -105 -102 -125
-127 l-37 -45 22 -22 c11 -13 21 -28 21 -34 0 -5 -17 -32 -37 -58 -138 -181
-249 -438 -295 -684 -28 -150 -31 -428 -5 -567 46 -254 162 -524 305 -714 84
-111 261 -290 286 -290 9 0 21 9 28 20 7 11 16 20 20 20 4 0 51 -30 105 -67
54 -36 148 -90 208 -119 217 -104 376 -142 631 -151 196 -6 221 -3 220 29 -1
20 6 23 74 34 250 39 487 141 694 298 81 61 246 223 246 241 0 7 -6 18 -14 24
-11 9 -37 -12 -127 -102 -230 -229 -517 -374 -822 -416 -53 -7 -58 -6 -63 13
-5 20 -12 21 -157 22 -239 2 -415 43 -622 145 -66 33 -155 85 -198 115 l-79
56 21 22 c12 12 21 26 21 32 0 5 -29 35 -64 66 -36 32 -94 95 -131 140 -335
419 -392 989 -147 1473 41 82 137 225 150 225 4 0 18 -9 32 -19 l24 -19 86 87
c111 114 200 179 335 245 197 96 367 136 581 136 247 0 490 -73 694 -209 47
-31 90 -59 97 -64 8 -5 59 50 153 165 l140 173 -22 17 c-204 160 -481 286
-743 339 -141 28 -433 35 -572 14z"/>
<path d="M6132 4440 c-148 -21 -284 -85 -388 -183 -73 -68 -111 -118 -155
-208 -80 -161 -108 -391 -74 -604 31 -199 98 -329 232 -455 159 -150 399 -217
639 -177 319 52 536 274 600 613 22 121 15 355 -15 468 -71 267 -257 460 -506
525 -92 24 -242 34 -333 21z m291 -338 c110 -54 182 -158 214 -305 24 -113 14
-320 -20 -415 -67 -188 -195 -278 -385 -270 -75 2 -97 8 -154 36 -159 78 -235
252 -225 512 6 150 28 230 90 321 77 115 173 161 323 156 79 -2 100 -7 157
-35z"/>
<path d="M7656 4415 c-9 -25 -7 -1568 3 -1583 7 -11 83 -13 417 -9 444 4 463
7 583 65 160 79 254 251 235 432 -9 82 -63 189 -124 243 -47 43 -138 87 -178
87 -9 0 -23 4 -31 9 -10 6 -4 12 23 21 98 32 180 102 220 189 17 38 21 65 21
151 0 93 -3 112 -27 162 -34 72 -100 138 -177 178 -117 58 -149 62 -572 67
-355 5 -387 4 -393 -12z m714 -289 c78 -41 110 -89 110 -166 0 -61 -27 -120
-70 -150 -55 -39 -113 -50 -267 -50 l-143 0 0 196 0 196 168 -4 c136 -3 173
-7 202 -22z m35 -630 c183 -85 177 -316 -10 -377 -26 -8 -101 -13 -215 -13
l-175 -1 -3 208 -2 207 177 0 c165 0 182 -2 228 -24z"/>
<path d="M9527 4424 c-4 -4 -7 -257 -7 -563 0 -460 3 -567 15 -620 47 -198
210 -356 430 -416 33 -9 114 -18 180 -21 152 -8 278 16 393 73 102 50 209 154
251 243 60 127 62 149 59 755 l-3 550 -167 3 -168 2 0 -227 c0 -649 -5 -856
-24 -905 -43 -114 -158 -190 -290 -192 -142 -2 -247 57 -303 172 l-28 57 -5
545 -5 545 -161 3 c-88 1 -163 -1 -167 -4z"/>
<path d="M11535 4418 c-3 -7 -4 -368 -3 -803 l3 -790 164 -3 c125 -2 166 1
173 10 9 15 11 1558 2 1582 -5 14 -30 16 -170 16 -123 0 -166 -3 -169 -12z"/>
<path d="M12560 4205 c0 -124 0 -362 0 -530 0 -168 0 -429 0 -580 l0 -275 513
2 512 3 3 120 c1 66 0 130 -3 143 l-5 22 -340 0 -340 0 -2 658 -3 657 -167 3
-168 2 0 -225z"/>
<path d="M14220 4211 c0 -121 -1 -363 -1 -536 0 -173 1 -436 1 -585 l0 -270
293 0 c160 0 335 5 387 10 421 44 670 340 670 795 0 417 -205 697 -570 780
-60 14 -146 18 -427 22 l-353 5 0 -221z m676 -92 c222 -41 327 -199 327 -494
0 -193 -35 -305 -124 -393 -87 -85 -180 -112 -394 -112 l-145 0 0 505 0 505
138 0 c76 0 165 -5 198 -11z"/>
</g>
</svg>
